<svg width="284" height="44" viewBox="0 0 284 44" fill="none" xmlns="http://www.w3.org/2000/svg">
<rect width="44" height="44" rx="6" transform="matrix(-1 0 0 1 284 0)" fill="#9C4DF4"/>
<path d="M265.54 21.29L259.88 15.64C259.787 15.5463 259.676 15.4719 259.555 15.4211C259.433 15.3704 259.302 15.3442 259.17 15.3442C259.038 15.3442 258.907 15.3704 258.785 15.4211C258.664 15.4719 258.553 15.5463 258.46 15.64C258.274 15.8274 258.169 16.0809 258.169 16.345C258.169 16.6092 258.274 16.8627 258.46 17.05L263.41 22.05L258.46 27C258.274 27.1874 258.169 27.4409 258.169 27.705C258.169 27.9692 258.274 28.2227 258.46 28.41C258.553 28.5045 258.663 28.5797 258.785 28.6312C258.907 28.6827 259.038 28.7095 259.17 28.71C259.302 28.7095 259.433 28.6827 259.555 28.6312C259.677 28.5797 259.787 28.5045 259.88 28.41L265.54 22.76C265.641 22.6664 265.722 22.5527 265.778 22.4262C265.833 22.2997 265.862 22.1631 265.862 22.025C265.862 21.8869 265.833 21.7503 265.778 21.6238C265.722 21.4973 265.641 21.3837 265.54 21.29Z" fill="white"/>
<path d="M183.072 27.192C185.424 27.192 187.408 25.208 187.408 22.856C187.408 20.504 185.424 18.536 183.072 18.536C180.704 18.536 178.704 20.504 178.704 22.856C178.704 25.208 180.704 27.192 183.072 27.192ZM183.072 25.816C181.552 25.816 180.288 24.472 180.288 22.856C180.288 21.256 181.552 19.912 183.072 19.912C184.56 19.912 185.824 21.256 185.824 22.856C185.824 24.472 184.56 25.816 183.072 25.816ZM191.437 17.816C191.437 17.24 191.821 16.824 192.285 16.824C192.637 16.824 192.957 16.952 193.133 17.128L193.709 16.072C193.261 15.704 192.653 15.48 192.061 15.48C190.781 15.48 189.885 16.408 189.885 17.736V18.728H188.637V20.072H189.885V27H191.437V20.072H193.389V18.728H191.437V17.816ZM203.349 27.192C205.653 27.192 207.493 26.008 207.493 24.104C207.493 22.76 206.485 21.784 205.173 21.32C206.293 20.888 207.221 20.072 207.221 18.76C207.221 16.936 205.397 15.816 203.349 15.816C201.365 15.816 199.493 16.888 199.493 18.76C199.493 20.008 200.341 20.84 201.541 21.32C200.229 21.768 199.205 22.744 199.205 24.104C199.205 25.992 201.029 27.192 203.349 27.192ZM203.349 20.712C202.373 20.648 201.109 20.072 201.109 18.936C201.109 17.96 202.085 17.24 203.349 17.24C204.613 17.24 205.605 17.96 205.605 18.936C205.605 20.04 204.357 20.648 203.349 20.712ZM203.349 25.768C201.941 25.768 200.837 25.032 200.837 23.96C200.837 22.792 202.277 22.088 203.349 22.056C204.437 22.088 205.861 22.792 205.861 23.96C205.861 25.032 204.757 25.768 203.349 25.768ZM213.818 27.192C216.554 27.192 218.506 24.84 218.506 21.496C218.506 18.168 216.554 15.816 213.818 15.816C211.05 15.816 209.114 18.168 209.114 21.496C209.114 24.84 211.05 27.192 213.818 27.192ZM213.818 25.704C212.026 25.704 210.762 23.96 210.762 21.496C210.762 19.032 212.026 17.304 213.818 17.304C215.594 17.304 216.842 19.032 216.842 21.496C216.842 23.96 215.594 25.704 213.818 25.704Z" fill="#0A033C"/>
<rect x="119" width="44" height="44" rx="8" fill="white"/>
<path d="M137.648 27.216C140.33 27.216 142.22 25.578 142.22 23.076C142.22 20.61 140.348 19.206 138.134 19.206C137.036 19.206 136.208 19.566 135.56 19.998L135.668 16.326H141.554V14.634H133.94L133.76 21.096L135.038 21.672C135.776 21.114 136.658 20.772 137.684 20.772C139.286 20.772 140.384 21.726 140.384 23.148C140.384 24.534 139.304 25.614 137.702 25.614C136.388 25.614 135.236 24.966 134.282 23.976L133.148 25.272C134.21 26.424 135.686 27.216 137.648 27.216Z" fill="#3E4756"/>
<path d="M65.2 27H66.816V23.176H69.824C72.144 23.176 73.904 21.688 73.904 19.592C73.904 17.496 72.144 16.008 69.824 16.008H65.2V27ZM66.816 21.672V17.512H69.6C71.184 17.512 72.256 18.296 72.256 19.592C72.256 20.888 71.184 21.672 69.6 21.672H66.816ZM79.0146 18.536C78.1026 18.536 77.0626 18.776 75.8786 19.368L76.4546 20.536C77.1746 20.168 77.9746 19.848 78.7906 19.848C80.4386 19.848 80.9186 20.952 80.9186 21.992V22.248C80.1186 21.976 79.2386 21.8 78.4226 21.8C76.5986 21.8 75.1106 22.904 75.1106 24.552C75.1106 26.168 76.4066 27.192 78.1666 27.192C79.1746 27.192 80.3106 26.728 80.9186 25.864V27H82.4706V21.992C82.4706 19.944 81.2386 18.536 79.0146 18.536ZM78.4706 25.944C77.4306 25.944 76.6306 25.4 76.6306 24.504C76.6306 23.608 77.5586 22.984 78.6626 22.984C79.4786 22.984 80.2466 23.096 80.9186 23.304V24.408C80.6466 25.432 79.4946 25.944 78.4706 25.944ZM91.0494 18.728V20.056C90.4254 19.128 89.3694 18.536 88.1214 18.536C85.9454 18.536 84.3614 20.152 84.3614 22.456C84.3614 24.76 85.9454 26.392 88.1214 26.392C89.3694 26.392 90.3934 25.832 91.0494 24.888V26.088C91.0494 27.528 89.9774 28.376 88.2014 28.376C87.2094 28.376 86.2174 28.04 85.6094 27.464L84.9854 28.648C85.7694 29.288 87.0494 29.752 88.4414 29.752C90.8894 29.752 92.6334 28.248 92.6334 26.12V18.728H91.0494ZM88.5214 25.016C87.0494 25.016 86.0094 23.96 86.0094 22.456C86.0094 20.968 87.0494 19.912 88.5214 19.912C89.9934 19.912 91.0494 20.968 91.0494 22.456C91.0494 23.96 89.9934 25.016 88.5214 25.016ZM98.7878 25.784C97.3638 25.784 96.3558 24.792 96.1478 23.416H102.66C102.66 20.456 101.204 18.536 98.6758 18.536C96.3878 18.536 94.5478 20.36 94.5478 22.84C94.5478 25.384 96.4998 27.192 98.8038 27.192C99.9718 27.192 101.412 26.696 102.148 25.912L101.156 24.888C100.66 25.4 99.6518 25.784 98.7878 25.784ZM98.7398 19.944C100.164 19.944 100.948 20.872 101.124 22.152H96.1638C96.4198 20.808 97.4598 19.944 98.7398 19.944Z" fill="#0A033C"/>
<rect width="44" height="44" rx="6" fill="#F2E6FF"/>
<path d="M18.46 21.29L24.12 15.64C24.213 15.5463 24.3236 15.4719 24.4454 15.4211C24.5673 15.3704 24.698 15.3442 24.83 15.3442C24.962 15.3442 25.0927 15.3704 25.2146 15.4211C25.3365 15.4719 25.4471 15.5463 25.54 15.64C25.7263 15.8274 25.8308 16.0809 25.8308 16.345C25.8308 16.6092 25.7263 16.8627 25.54 17.05L20.59 22.05L25.54 27C25.7263 27.1874 25.8308 27.4409 25.8308 27.705C25.8308 27.9692 25.7263 28.2227 25.54 28.41C25.4474 28.5045 25.337 28.5797 25.2151 28.6312C25.0932 28.6827 24.9623 28.7095 24.83 28.71C24.6977 28.7095 24.5668 28.6827 24.445 28.6312C24.3231 28.5797 24.2126 28.5045 24.12 28.41L18.46 22.76C18.3585 22.6664 18.2775 22.5527 18.2221 22.4262C18.1667 22.2997 18.1381 22.1631 18.1381 22.025C18.1381 21.8869 18.1667 21.7503 18.2221 21.6238C18.2775 21.4973 18.3585 21.3837 18.46 21.29Z" fill="#9C4DF4"/>
</svg>
